<svg width="500" height="320" viewBox="0 0 500 320" xmlns="http://www.w3.org/2000/svg">
  <g opacity="0.3" fill="none" stroke="#1a3faf" stroke-width="1">
    <path d="M0 40 Q62 24 125 40 Q187 56 250 40 Q312 24 375 40 Q437 56 500 40"/>
    <path d="M0 65 Q62 49 125 65 Q187 81 250 65 Q312 49 375 65 Q437 81 500 65"/>
    <path d="M0 90 Q62 74 125 90 Q187 106 250 90 Q312 74 375 90 Q437 106 500 90"/>
    <path d="M0 115 Q62 99 125 115 Q187 131 250 115 Q312 99 375 115 Q437 131 500 115"/>
    <path d="M0 140 Q62 124 125 140 Q187 156 250 140 Q312 124 375 140 Q437 156 500 140"/>
    <path d="M0 165 Q62 149 125 165 Q187 181 250 165 Q312 149 375 165 Q437 181 500 165"/>
    <path d="M0 190 Q62 174 125 190 Q187 206 250 190 Q312 174 375 190 Q437 206 500 190"/>
    <path d="M0 215 Q62 199 125 215 Q187 231 250 215 Q312 199 375 215 Q437 231 500 215"/>
    <path d="M0 240 Q62 224 125 240 Q187 256 250 240 Q312 224 375 240 Q437 256 500 240"/>
    <path d="M0 265 Q62 249 125 265 Q187 281 250 265 Q312 249 375 265 Q437 281 500 265"/>
    <path d="M0 290 Q62 274 125 290 Q187 306 250 290 Q312 274 375 290 Q437 306 500 290"/>
    <path d="M0 15 Q62 -1 125 15 Q187 31 250 15 Q312 -1 375 15 Q437 31 500 15"/>
    <path d="M0 315 Q62 299 125 315 Q187 331 250 315 Q312 299 375 315 Q437 331 500 315"/>
  </g>
  <g opacity="0.12" fill="none" stroke="#1a3faf" stroke-width="1">
    <circle cx="430" cy="70" r="60"/>
    <circle cx="430" cy="70" r="85"/>
    <circle cx="430" cy="70" r="110"/>
    <circle cx="430" cy="70" r="135"/>
    <circle cx="430" cy="70" r="160"/>
    <circle cx="70" cy="250" r="45"/>
    <circle cx="70" cy="250" r="70"/>
    <circle cx="70" cy="250" r="95"/>
  </g>
</svg>
